<?xml version="1.0" encoding="iso-8859-1"?>

<!DOCTYPE svg PUBLIC "-//W3C//DTD SVG 1.1//EN" "http://www.w3.org/Graphics/SVG/1.1/DTD/svg11.dtd">
<!-- Uploaded to: SVG Repo, www.svgrepo.com, Generator: SVG Repo Mixer Tools -->
<svg height="800px" width="800px" version="1.1" id="_x36_" xmlns="http://www.w3.org/2000/svg" xmlns:xlink="http://www.w3.org/1999/xlink" 
	 viewBox="0 0 512 512"  xml:space="preserve">
<g>
	<g>
		<path style="fill:#E4958C;" d="M512,256.002c0,141.377-114.617,255.994-256.002,255.994C114.613,511.996,0,397.379,0,256.002
			C0,114.609,114.613,0,255.998,0C397.383,0,512,114.609,512,256.002z"/>
		<path style="fill:#F5CDD3;" d="M403.774,357.972c0,25.294-20.512,45.79-45.79,45.79c-25.294,0-45.79-20.496-45.79-45.79
			c0-25.278,20.496-45.775,45.79-45.775C383.262,312.198,403.774,332.694,403.774,357.972z"/>
		<path style="fill:#F5CDD3;" d="M233.11,241.43c0,14.947-12.12,27.06-27.052,27.06c-14.933,0-27.068-12.113-27.068-27.06
			c0-14.94,12.135-27.053,27.068-27.053C220.99,214.377,233.11,226.49,233.11,241.43z"/>
		<path style="fill:#F5CDD3;" d="M458.406,241.43c0,18.684-15.158,33.812-33.82,33.812c-18.677,0-33.82-15.128-33.82-33.812
			c0-18.685,15.143-33.82,33.82-33.82C443.247,207.61,458.406,222.745,458.406,241.43z"/>
		<path style="fill:#F5CDD3;" d="M364.871,162.347c0,23.354-18.933,42.279-42.271,42.279c-23.339,0-42.271-18.925-42.271-42.279
			c0-23.361,18.932-42.278,42.271-42.278C345.938,120.068,364.871,138.986,364.871,162.347z"/>
		<path style="fill:#F5CDD3;" d="M254.554,399.612c0,18.752-15.188,33.94-33.94,33.94s-33.94-15.188-33.94-33.94
			c0-18.759,15.188-33.948,33.94-33.948S254.554,380.852,254.554,399.612z"/>
		<path style="fill:#F5CDD3;" d="M196.283,116.55c0,16.466-13.338,29.789-29.774,29.789c-16.452,0-29.794-13.324-29.794-29.789
			c0-16.444,13.342-29.775,29.794-29.775C182.945,86.775,196.283,100.106,196.283,116.55z"/>
		<path style="fill:#F5CDD3;" d="M132.102,293.468c0,21.601-17.507,39.082-39.079,39.082c-21.598,0-39.098-17.481-39.098-39.082
			c0-21.594,17.5-39.091,39.098-39.091C114.595,254.377,132.102,271.874,132.102,293.468z"/>
	</g>
	<g style="opacity:0.04;">
		<path style="fill:#951C5D;" d="M87.238,448.409c45.06,39.557,104.083,63.587,168.76,63.587
			C397.383,511.996,512,397.379,512,256.002c0-64.677-24.045-123.7-63.595-168.776L87.238,448.409z"/>
	</g>
</g>
</svg>