<?xml version="1.0" ?>
<!-- Uploaded to: SVG Repo, www.svgrepo.com, Generator: SVG Repo Mixer Tools -->
<svg width="800px" height="800px" viewBox="0 0 64 64" xmlns="http://www.w3.org/2000/svg">
<defs>
<style>.cls-1{fill:#aa7b50;}.cls-2{fill:#bb9573;}.cls-3{fill:#fccb7e;}.cls-4{fill:#fdd598;}.cls-5{fill:#eabc75;}</style>
</defs>
<title/>
<g data-name="Layer 25" id="Layer_25">
<path class="cls-1" d="M53,0H11A11.013,11.013,0,0,0,0,11c0,4.836,5.272,8.8,7.539,10.274A1.007,1.007,0,0,1,8,22.116V63a1,1,0,0,0,1,1H55a1,1,0,0,0,1-1V22.116a1.007,1.007,0,0,1,.461-.842C58.728,19.8,64,15.836,64,11A11.013,11.013,0,0,0,53,0Z"/>
<path class="cls-2" d="M53,0H51A11.013,11.013,0,0,1,62,11c0,4.836-5.272,8.8-7.539,10.274a1.007,1.007,0,0,0-.461.842V63a1,1,0,0,1-1,1h2a1,1,0,0,0,1-1V22.116a1.007,1.007,0,0,1,.461-.842C58.728,19.8,64,15.836,64,11A11.013,11.013,0,0,0,53,0Z"/>
<path class="cls-3" d="M53,4H11a7.009,7.009,0,0,0-7,7c0,2.355,3.083,5.2,5.724,6.924A4.99,4.99,0,0,1,12,22.116V59a1,1,0,0,0,1,1H51a1,1,0,0,0,1-1V22.116a4.99,4.99,0,0,1,2.276-4.192C56.917,16.2,60,13.355,60,11A7.009,7.009,0,0,0,53,4Z"/>
<path class="cls-4" d="M53,4H51a7.009,7.009,0,0,1,7,7c0,2.355-3.083,5.2-5.724,6.924A4.99,4.99,0,0,0,50,22.116V59a1,1,0,0,1-1,1h2a1,1,0,0,0,1-1V22.116a4.99,4.99,0,0,1,2.276-4.192C56.917,16.2,60,13.355,60,11A7.009,7.009,0,0,0,53,4Z"/>
<path class="cls-5" d="M21,20H19a1,1,0,0,1,0-2h2a1,1,0,0,1,0,2Z"/>
<path class="cls-5" d="M27,17H25a1,1,0,0,1,0-2h2a1,1,0,0,1,0,2Z"/>
<path class="cls-5" d="M17,11H15a1,1,0,0,1,0-2h2a1,1,0,0,1,0,2Z"/>
<path class="cls-5" d="M19,15H17a1,1,0,0,1,0-2h2a1,1,0,0,1,0,2Z"/>
<path class="cls-5" d="M45,20H43a1,1,0,0,1,0-2h2a1,1,0,0,1,0,2Z"/>
<path class="cls-5" d="M39,17H37a1,1,0,0,1,0-2h2a1,1,0,0,1,0,2Z"/>
<path class="cls-5" d="M49,11H47a1,1,0,0,1,0-2h2a1,1,0,0,1,0,2Z"/>
<path class="cls-5" d="M47,15H45a1,1,0,0,1,0-2h2a1,1,0,0,1,0,2Z"/>
<path class="cls-5" d="M33,13H31a1,1,0,0,1,0-2h2a1,1,0,0,1,0,2Z"/>
</g>
</svg>